<?xml version="1.0" encoding="utf-8"?>
<!-- Generator: Adobe Illustrator 26.0.1, SVG Export Plug-In . SVG Version: 6.00 Build 0)  -->
<svg version="1.1" id="Layer_1" xmlns="http://www.w3.org/2000/svg" xmlns:xlink="http://www.w3.org/1999/xlink" x="0px" y="0px"
	 viewBox="0 0 472.5 70.1" style="enable-background:new 0 0 472.5 70.1;" xml:space="preserve">
<style type="text/css">
	.st0{fill:#EE3326;}
	.st1{fill:#FFFFFF;}
</style>
<g>
	<rect x="465.8" y="47.9" class="st0" width="6.7" height="6.7"/>
	<g>
		<g>
			<path class="st1" d="M333.8,55.6c-2.3,0-4.3-0.5-6.1-1.4c-1.8-0.9-3.2-2.3-4.3-4c-1-1.8-1.6-3.9-1.6-6.5c0-2.4,0.5-4.5,1.5-6.3
				c1-1.7,2.5-3,4.4-4c1.9-0.9,4.2-1.4,6.9-1.4h10.6v3.1h-10.9c-2.9,0-5.1,0.8-6.7,2.3c-1.6,1.6-2.3,3.6-2.3,6.2
				c0,2.7,0.8,4.8,2.5,6.4c1.7,1.6,3.8,2.3,6.5,2.3c1.7,0,3.3-0.4,4.9-1.1c1.6-0.7,2.9-1.9,4-3.6c1.1-1.7,1.6-4,1.7-6.9l1.3,1.7
				c-0.1,2.9-0.8,5.4-1.9,7.3c-1.1,1.9-2.6,3.4-4.4,4.4C338.1,55.2,336.1,55.6,333.8,55.6z M345.5,54.6V43.3h-0.6V29.4
				c0-3-0.7-5.4-2.1-7c-1.4-1.7-3.7-2.5-7-2.5c-1.2,0-2.3,0-3.5,0.1c-1.2,0.1-2.3,0.1-3.4,0.2c-1.1,0.1-2,0.2-2.9,0.3v-3.5
				c0.9-0.1,1.8-0.3,2.7-0.4c1-0.1,1.9-0.2,2.9-0.2c1,0,1.9-0.1,2.8-0.1c3.4,0,6.1,0.5,8.1,1.5c2,1,3.5,2.5,4.4,4.5
				c0.9,2,1.3,4.5,1.3,7.6v24.6H345.5z"/>
			<path class="st1" d="M357.6,69V16.8h2.7V33l-1,0.5c0-3.6,0.7-6.7,2-9.3c1.3-2.7,3.1-4.7,5.3-6.2c2.3-1.5,4.9-2.2,7.9-2.2
				c2.6,0,4.8,0.5,6.8,1.6c2,1.1,3.7,2.5,5.1,4.4c1.4,1.8,2.4,3.9,3.2,6.3c0.7,2.4,1.1,4.8,1.1,7.4v0.7c0,2.4-0.4,4.8-1.1,7.2
				c-0.7,2.3-1.8,4.4-3.2,6.3c-1.4,1.9-3.1,3.4-5.1,4.5c-2,1.1-4.3,1.7-6.8,1.7c-3,0-5.6-0.8-7.9-2.3c-2.3-1.5-4.1-3.7-5.3-6.4
				c-1.3-2.7-2-5.8-2-9.2l1.8,5V69H357.6z M374.1,52.4c2.8,0,5.2-0.8,7.2-2.3c2-1.6,3.5-3.6,4.5-6.1c1-2.5,1.5-5.2,1.5-8.2
				c0-3.1-0.5-5.9-1.6-8.4c-1-2.5-2.6-4.5-4.5-6c-2-1.5-4.4-2.2-7.1-2.2c-2.6,0-4.8,0.6-6.8,1.9c-2,1.3-3.6,3-4.7,5.3
				c-1.2,2.2-1.7,4.8-1.7,7.7v3.7c0,2.7,0.6,5.2,1.7,7.4c1.1,2.2,2.7,4,4.7,5.3C369.2,51.7,371.5,52.4,374.1,52.4z"/>
			<path class="st1" d="M411.4,55.9c-2.9,0-5.3-0.6-7.4-1.7c-2.1-1.1-3.8-2.6-5.1-4.5c-1.3-1.9-2.3-4-3-6.4c-0.7-2.4-1-4.8-1-7.2
				v-0.7c0-2.5,0.3-4.9,1-7.2c0.7-2.3,1.7-4.4,3-6.3c1.3-1.9,3-3.4,5.1-4.5c2-1.1,4.4-1.6,7.1-1.6c3.4,0,6.3,0.9,8.6,2.6
				c2.3,1.7,4.1,3.9,5.3,6.7c1.2,2.7,1.8,5.6,1.8,8.6v2.6h-30.2V33h28l-1,1.4c0-2.9-0.5-5.5-1.4-7.8s-2.4-4.1-4.2-5.4
				c-1.9-1.3-4.1-2-6.8-2c-2.9,0-5.2,0.7-7.2,2.2c-1.9,1.5-3.4,3.5-4.3,6c-1,2.5-1.4,5.3-1.4,8.3s0.5,5.8,1.4,8.3
				c1,2.5,2.4,4.6,4.4,6.1c2,1.6,4.5,2.3,7.5,2.3c3.2,0,5.9-0.8,7.8-2.5c2-1.7,3.2-3.7,3.6-6h3.3c-0.5,2.4-1.4,4.4-2.7,6.3
				c-1.3,1.8-3,3.2-5,4.2C416.5,55.3,414.1,55.9,411.4,55.9z"/>
			<path class="st1" d="M428.8,54.6l12.9-19.9l0.3,1.5l-12.2-19.4h3.8l9.7,15.5h0.8l9.3-15.5h3.6l-11.3,18.6l-0.3-1.4l13.6,20.6H455
				L444,37.8h-0.8l-10.8,16.8H428.8z"/>
		</g>
		<g>
			<path class="st1" d="M15.6,55.9c-4.8,0-8.5-1.1-11.2-3.4C1.6,50.2,0.2,47,0,43h8.1c0.1,1.3,0.8,2.6,2,3.7
				c1.2,1.1,3.1,1.7,5.6,1.7c2.1,0,3.8-0.4,5.1-1.3c1.3-0.9,1.9-2,1.9-3.5c0-1.2-0.5-2.3-1.4-3c-1-0.8-2.6-1.3-5-1.6l-3-0.4
				c-3.9-0.4-6.9-1.7-9-3.7c-2.1-2-3.1-4.7-3.1-8.1c0-2.7,0.6-4.9,1.8-6.8c1.2-1.8,2.8-3.2,5-4.1c2.1-0.9,4.6-1.4,7.3-1.4
				c4.3,0,7.7,1.1,10.4,3.2c2.6,2.1,4,5.2,4.2,9.4h-8c-0.1-1.4-0.7-2.6-1.8-3.5c-1.1-1-2.7-1.4-4.8-1.4c-1.9,0-3.3,0.4-4.4,1.2
				c-1,0.8-1.5,1.9-1.5,3.2c0,1.2,0.4,2.2,1.2,2.9c0.8,0.7,2.2,1.1,4.1,1.4l3.1,0.4c4.1,0.5,7.3,1.8,9.6,3.8
				c2.3,2.1,3.5,4.8,3.5,8.3c0,2.6-0.6,4.8-1.9,6.8c-1.3,1.9-3,3.4-5.3,4.4C21.3,55.3,18.6,55.9,15.6,55.9z"/>
			<path class="st1" d="M53,56c-3.1,0-5.8-0.6-8.1-1.7c-2.3-1.1-4.3-2.6-6-4.5c-1.6-1.9-2.8-4-3.7-6.4c-0.8-2.4-1.2-4.9-1.2-7.6
				v-1.5c0-2.7,0.4-5.2,1.3-7.7c0.9-2.4,2.1-4.6,3.7-6.5c1.6-1.9,3.6-3.4,6-4.5s5-1.6,8-1.6c2.9,0,5.6,0.5,7.9,1.6
				c2.3,1.1,4.3,2.6,6,4.5c1.6,1.9,2.9,4.1,3.7,6.5c0.9,2.4,1.3,5,1.3,7.7v1.5c0,2.6-0.4,5.2-1.2,7.6c-0.8,2.4-2.1,4.5-3.7,6.4
				c-1.6,1.9-3.6,3.4-6,4.5C58.7,55.4,56,56,53,56z M53,47.4c2.1,0,3.9-0.5,5.4-1.6c1.5-1.1,2.6-2.5,3.4-4.4
				c0.8-1.8,1.2-3.9,1.2-6.3c0-2.4-0.4-4.5-1.2-6.3c-0.8-1.9-2-3.3-3.5-4.4c-1.5-1.1-3.3-1.6-5.4-1.6c-2.1,0-3.9,0.5-5.4,1.6
				c-1.5,1.1-2.7,2.6-3.5,4.4c-0.8,1.9-1.2,4-1.2,6.3c0,2.4,0.4,4.5,1.2,6.3c0.8,1.8,1.9,3.3,3.4,4.4C49,46.9,50.8,47.4,53,47.4z"/>
			<path class="st1" d="M84.2,54.6L73.3,15.5h9.2l10.4,39.1H84.2z M86.8,54.6v-8.2h9.4v8.2H86.8z M90.3,54.6l9-39.1h8.6l-9.4,39.1
				H90.3z"/>
			<path class="st1" d="M127.6,56c-3,0-5.6-0.6-7.8-1.7c-2.2-1.2-4.1-2.7-5.6-4.6c-1.5-1.9-2.6-4.1-3.3-6.5
				c-0.7-2.4-1.1-4.8-1.1-7.3v-1.4c0-2.6,0.4-5.1,1.1-7.5c0.7-2.4,1.8-4.6,3.3-6.5c1.5-1.9,3.3-3.4,5.5-4.5c2.2-1.1,4.7-1.7,7.6-1.7
				c3.8,0,6.9,0.9,9.4,2.8c2.5,1.8,4.4,4.3,5.7,7.3c1.3,3,1.9,6.2,1.9,9.7v3.7h-30.8v-6.2h25.2l-2.7,3c0-2.5-0.3-4.6-1-6.4
				c-0.7-1.8-1.6-3.1-2.9-4.1c-1.3-1-2.9-1.4-4.9-1.4c-2,0-3.6,0.5-5,1.5c-1.4,1-2.4,2.5-3.1,4.4s-1.1,4.1-1.1,6.8
				c0,2.4,0.3,4.6,1,6.5c0.7,1.9,1.7,3.4,3.1,4.5c1.4,1.1,3.2,1.6,5.4,1.6c2.1,0,3.9-0.5,5.2-1.5c1.4-1,2.2-2.2,2.6-3.6h8.3
				c-0.5,2.7-1.5,5-2.9,7.1c-1.5,2-3.3,3.6-5.5,4.7C133,55.4,130.4,56,127.6,56z"/>
			<path class="st1" d="M149.9,54.6V15.5h7v16.6h-0.2c0-5.6,1.1-9.8,3.2-12.7c2.1-2.9,5.3-4.4,9.4-4.4h1.3v8.7h-2.4
				c-3,0-5.3,0.9-6.9,2.7c-1.6,1.8-2.5,4.4-2.5,7.8v20.3H149.9z"/>
			<path class="st1" d="M190.1,56c-3,0-5.6-0.6-7.8-1.7c-2.2-1.2-4.1-2.7-5.6-4.6c-1.5-1.9-2.6-4.1-3.3-6.5
				c-0.7-2.4-1.1-4.8-1.1-7.3v-1.4c0-2.6,0.4-5.1,1.1-7.5c0.7-2.4,1.8-4.6,3.3-6.5c1.5-1.9,3.3-3.4,5.5-4.5c2.2-1.1,4.7-1.7,7.6-1.7
				c3.8,0,6.9,0.9,9.4,2.8c2.5,1.8,4.4,4.3,5.7,7.3c1.3,3,1.9,6.2,1.9,9.7v3.7H176v-6.2h25.2l-2.7,3c0-2.5-0.3-4.6-1-6.4
				c-0.7-1.8-1.6-3.1-2.9-4.1c-1.3-1-2.9-1.4-4.9-1.4c-2,0-3.6,0.5-5,1.5c-1.4,1-2.4,2.5-3.1,4.4s-1.1,4.1-1.1,6.8
				c0,2.4,0.3,4.6,1,6.5c0.7,1.9,1.7,3.4,3.1,4.5c1.4,1.1,3.2,1.6,5.4,1.6c2.1,0,3.9-0.5,5.2-1.5c1.4-1,2.2-2.2,2.6-3.6h8.3
				c-0.5,2.7-1.5,5-2.9,7.1c-1.5,2-3.3,3.6-5.5,4.7C195.5,55.4,192.9,56,190.1,56z"/>
			<path class="st1" d="M209.2,23v-7.5H223V23H209.2z M217.3,10.9c-1.8,0-3-0.5-3.9-1.5c-0.8-1-1.2-2.3-1.2-4c0-1.6,0.4-2.9,1.2-3.9
				c0.8-1,2.1-1.5,3.9-1.5c1.7,0,3,0.5,3.8,1.5c0.8,1,1.2,2.3,1.2,3.9c0,1.6-0.4,3-1.2,4C220.4,10.4,219.1,10.9,217.3,10.9z
				 M214.1,54.6V15.5h8.9v39.1H214.1z"/>
			<path class="st1" d="M244.9,70.1c-1.7,0-3.4-0.1-5.1-0.2c-1.7-0.1-3.3-0.3-4.8-0.6v-8.4c1.5,0.2,3.1,0.4,4.9,0.5
				c1.8,0.2,3.4,0.3,4.9,0.3c2.9,0,5.2-0.4,7-1.2c1.8-0.8,3.1-2,3.9-3.6c0.8-1.7,1.2-3.8,1.2-6.3v-7.7l1.9-4.9
				c-0.1,3.6-0.7,6.7-1.9,9.2c-1.2,2.5-2.8,4.4-4.9,5.7c-2,1.3-4.4,2-7.1,2c-2.4,0-4.6-0.5-6.5-1.5c-2-1-3.6-2.4-5-4.2
				c-1.4-1.8-2.5-3.9-3.2-6.3c-0.7-2.4-1.1-4.9-1.1-7.7v-1.6c0-2.7,0.4-5.3,1.2-7.7c0.8-2.4,1.9-4.4,3.4-6.2
				c1.5-1.8,3.2-3.1,5.2-4.1c2-1,4.2-1.4,6.7-1.4c2.8,0,5.3,0.7,7.4,2.1c2.1,1.4,3.8,3.4,5,6c1.2,2.6,1.9,5.9,2,9.7l-1.5,0.3V15.5
				h7.1V50c0,4.8-0.7,8.6-2.2,11.6c-1.5,3-3.7,5.1-6.7,6.5C253.5,69.4,249.7,70.1,244.9,70.1z M247.6,46.3c1.7,0,3.3-0.4,4.7-1.3
				c1.4-0.9,2.5-2.1,3.4-3.7c0.8-1.6,1.2-3.6,1.2-5.9V33c0-2.3-0.4-4.1-1.3-5.7c-0.9-1.5-2-2.7-3.4-3.5c-1.4-0.8-2.9-1.2-4.5-1.2
				c-1.9,0-3.5,0.5-5,1.5c-1.4,1-2.5,2.4-3.4,4.2c-0.8,1.8-1.2,3.9-1.2,6.3c0,2.4,0.4,4.5,1.2,6.3c0.8,1.8,1.9,3.1,3.4,4.1
				C244,45.9,245.7,46.3,247.6,46.3z"/>
			<path class="st1" d="M273.3,54.6V15.5h7v16.8h-0.6c0-4,0.5-7.3,1.4-10c0.9-2.7,2.3-4.7,4.2-6c1.9-1.3,4.2-2,6.9-2h0.4
				c4.1,0,7.3,1.5,9.4,4.5c2.1,3,3.2,7.5,3.2,13.4v22.4h-8.9V31.4c0-2.4-0.6-4.3-1.9-5.8c-1.2-1.5-2.9-2.2-5-2.2
				c-2.2,0-3.9,0.8-5.3,2.3c-1.3,1.5-2,3.6-2,6v23H273.3z"/>
		</g>
	</g>
</g>
</svg>
