<?xml version="1.0" encoding="utf-8"?>
<!-- Generator: Adobe Illustrator 26.0.1, SVG Export Plug-In . SVG Version: 6.00 Build 0)  -->
<svg version="1.1" id="Layer_1" xmlns="http://www.w3.org/2000/svg" xmlns:xlink="http://www.w3.org/1999/xlink" x="0px" y="0px"
	 viewBox="0 0 319.5 52.4" style="enable-background:new 0 0 319.5 52.4;" xml:space="preserve">
<style type="text/css">
	.st0{fill:#ED3326;}
	.st1{fill:#FFFFFF;}
</style>
<g>
	<g>
		<rect x="312.8" y="45.3" class="st0" width="6.7" height="6.7"/>
	</g>
	<g>
		<path class="st1" d="M18.3,52.4c-2.7,0-5.2-0.5-7.4-1.5c-2.2-1-4.1-2.3-5.8-4.1C3.5,45,2.2,43,1.3,40.6C0.4,38.2,0,35.7,0,32.9
			v-1.5c0-2.7,0.4-5.2,1.3-7.6c0.8-2.4,2.1-4.5,3.6-6.2c1.6-1.8,3.5-3.2,5.7-4.2c2.2-1,4.6-1.5,7.4-1.5c3,0,5.6,0.6,7.9,1.9
			c2.3,1.3,4.1,3.2,5.4,5.8c1.3,2.6,2.1,5.8,2.2,9.7L30.6,26V0h9.8v51.1h-7.8V35h1.7c-0.1,3.8-0.9,7-2.4,9.6
			c-1.4,2.6-3.3,4.5-5.7,5.8C23.9,51.7,21.2,52.4,18.3,52.4z M20.4,44.2c1.9,0,3.7-0.4,5.2-1.3c1.6-0.9,2.8-2.1,3.8-3.8
			c1-1.7,1.4-3.6,1.4-5.8v-2.8c0-2.2-0.5-4.1-1.5-5.6s-2.3-2.7-3.9-3.5c-1.6-0.8-3.3-1.2-5.1-1.2c-2.1,0-4,0.5-5.6,1.5
			c-1.6,1-2.9,2.4-3.8,4.2c-0.9,1.8-1.4,3.9-1.4,6.3c0,2.4,0.5,4.5,1.4,6.3c0.9,1.8,2.2,3.2,3.8,4.2S18.4,44.2,20.4,44.2z"/>
		<path class="st1" d="M71,52.4c-3.1,0-5.9-0.7-8.3-2s-4.2-3.3-5.6-5.8c-1.4-2.5-2.1-5.6-2.2-9.3h1.5v15.8h-7.7V0h9.7v25.6l-2.6,3.9
			c0.2-3.9,1-7.2,2.3-9.8c1.4-2.6,3.2-4.6,5.6-5.9c2.3-1.3,5-2,7.9-2c2.6,0,5,0.5,7.1,1.5c2.1,1,4,2.3,5.5,4.1s2.7,3.8,3.5,6.1
			c0.8,2.3,1.2,4.9,1.2,7.6v1.5c0,2.8-0.4,5.3-1.3,7.7c-0.8,2.4-2.1,4.5-3.6,6.3c-1.6,1.8-3.5,3.2-5.7,4.2
			C76.2,51.9,73.7,52.4,71,52.4z M68.8,44.2c2.1,0,3.9-0.5,5.5-1.6c1.6-1.1,2.8-2.5,3.7-4.3c0.9-1.8,1.3-3.9,1.3-6.3
			c0-2.4-0.4-4.5-1.3-6.3c-0.9-1.8-2.1-3.2-3.7-4.2c-1.6-1-3.4-1.5-5.4-1.5c-1.9,0-3.7,0.4-5.3,1.3c-1.6,0.9-2.9,2.1-3.9,3.7
			c-1,1.6-1.5,3.6-1.5,5.8v2.8c0,2.2,0.5,4.1,1.5,5.6c1,1.5,2.4,2.7,4,3.6C65.3,43.8,67,44.2,68.8,44.2z"/>
		<path class="st1" d="M104.6,17.6v-3.2h9.9v3.2H104.6z M111.1,6.6c-1,0-1.7-0.3-2.2-0.8c-0.5-0.5-0.8-1.2-0.8-2.1
			c0-0.9,0.3-1.6,0.8-2.2c0.5-0.6,1.3-0.8,2.2-0.8c1,0,1.8,0.3,2.3,0.8c0.5,0.6,0.8,1.3,0.8,2.2c0,0.8-0.3,1.5-0.8,2.1
			C112.9,6.4,112.1,6.6,111.1,6.6z M110.7,51.1V14.4h3.8v36.8H110.7z"/>
		<path class="st1" d="M126.2,51.1V14.4h2.9v15h-0.8c0-3.2,0.5-6,1.6-8.4c1.1-2.4,2.6-4.3,4.7-5.6c2.1-1.3,4.7-2,7.7-2h0.2
			c4.6,0,8.1,1.4,10.4,4.3c2.3,2.9,3.5,6.8,3.5,11.7v21.7h-3.8V28.6c0-3.5-0.9-6.3-2.8-8.5s-4.6-3.3-8.2-3.3c-3.6,0-6.5,1.1-8.6,3.3
			c-2.1,2.2-3.2,5.1-3.2,8.8v22.2H126.2z"/>
		<path class="st1" d="M178.6,52.1c-4.6,0-8.1-1-10.5-3.1s-3.7-4.8-3.7-8h3.6c0,2.1,0.8,3.9,2.5,5.5c1.7,1.6,4.4,2.3,8.2,2.3
			c3.7,0,6.4-0.8,8.1-2.3c1.7-1.6,2.6-3.4,2.6-5.6c0-2.1-0.8-3.7-2.3-4.8c-1.6-1.1-3.7-1.8-6.3-2.1l-4.3-0.5c-3.2-0.4-5.8-1.4-7.7-3
			c-1.9-1.6-2.8-3.9-2.8-6.6c0-2,0.5-3.8,1.5-5.4c1-1.6,2.5-2.8,4.4-3.8c1.9-0.9,4.2-1.4,6.8-1.4c3.8,0,6.9,0.9,9.3,2.8
			c2.4,1.9,3.6,4.4,3.6,7.6h-3.6c0-2-0.7-3.7-2.3-5c-1.6-1.4-3.9-2-6.9-2c-3.1,0-5.4,0.7-7,2.2c-1.5,1.4-2.3,3.1-2.3,5.1
			c0,1.6,0.6,3,1.8,4.2c1.2,1.2,3,1.9,5.4,2.2l4.3,0.5c3.5,0.3,6.3,1.3,8.6,3c2.3,1.7,3.4,4.1,3.4,7.2c0,2.1-0.6,4-1.7,5.7
			c-1.1,1.7-2.8,3-4.9,4C184.2,51.6,181.6,52.1,178.6,52.1z"/>
		<path class="st1" d="M213.9,52.1c-4.4,0-7.8-1.4-10.1-4.3c-2.3-2.8-3.4-6.7-3.4-11.5v-22h3.8v22.8c0,3.4,0.9,6.2,2.7,8.3
			c1.8,2.1,4.4,3.2,7.8,3.2c3.5,0,6.2-1.1,8.2-3.3c2-2.2,3-5.1,3-8.6V14.4h3.7v36.8h-2.9V36.3h0.8c0,3.1-0.5,5.9-1.5,8.3
			c-1,2.4-2.5,4.3-4.4,5.6c-2,1.3-4.5,2-7.5,2H213.9z"/>
		<path class="st1" d="M241.4,51.1V14.4h2.9v15.5h-0.6c0-5.3,1.2-9.3,3.6-11.9c2.4-2.6,6.2-3.9,11.5-3.9h1.3v3.4h-2
			c-4.3,0-7.6,1.1-9.8,3.3c-2.2,2.2-3.3,5.5-3.3,9.8v20.6H241.4z"/>
		<path class="st1" d="M281,52.3c-3.1,0-5.8-0.5-8.1-1.6c-2.3-1.1-4.2-2.6-5.6-4.4c-1.4-1.8-2.5-3.9-3.3-6.2c-0.7-2.3-1.1-4.7-1.1-7
			v-0.7c0-2.4,0.4-4.8,1.1-7c0.7-2.2,1.8-4.3,3.3-6.1c1.5-1.8,3.3-3.3,5.5-4.3c2.2-1.1,4.8-1.6,7.7-1.6c3.7,0,6.9,0.8,9.4,2.5
			c2.5,1.7,4.5,3.8,5.8,6.5c1.3,2.7,2,5.5,2,8.4v2.5h-33V30h30.6l-1.1,1.4c0-2.8-0.5-5.4-1.6-7.6c-1-2.2-2.6-4-4.6-5.3
			c-2-1.3-4.5-1.9-7.4-1.9c-3.1,0-5.7,0.7-7.8,2.2c-2.1,1.4-3.7,3.4-4.7,5.8c-1,2.4-1.6,5.1-1.6,8s0.5,5.6,1.6,8.1s2.6,4.4,4.8,6
			c2.1,1.5,4.9,2.3,8.2,2.3c3.5,0,6.4-0.8,8.6-2.5c2.2-1.6,3.5-3.6,4-5.9h3.6c-0.5,2.3-1.5,4.3-2.9,6.1c-1.4,1.8-3.3,3.2-5.5,4.1
			S283.9,52.3,281,52.3z"/>
	</g>
</g>
</svg>
