<?xml version="1.0" standalone="no"?>
<!DOCTYPE svg PUBLIC "-//W3C//DTD SVG 20010904//EN"
 "http://www.w3.org/TR/2001/REC-SVG-20010904/DTD/svg10.dtd">
<svg version="1.0" xmlns="http://www.w3.org/2000/svg"
 width="512.000000pt" height="512.000000pt" viewBox="0 0 512.000000 512.000000"
 preserveAspectRatio="xMidYMid meet">
<metadata>
Created by potrace 1.14, written by Peter Selinger 2001-2017
</metadata>
<g transform="translate(0.000000,512.000000) scale(0.100000,-0.100000)"
fill="#000000" stroke="none">
<path d="M2455 5095 c-144 -29 -257 -69 -483 -169 -233 -104 -251 -109 -337
-109 -87 0 -155 29 -241 101 -83 70 -111 69 -144 -3 -51 -113 -81 -249 -84
-384 -1 -62 -3 -65 -41 -95 -226 -176 -357 -303 -516 -502 -50 -64 -176 -265
-227 -364 -81 -159 -124 -270 -192 -495 -12 -40 -46 -211 -55 -275 -27 -191
-27 -549 -1 -696 2 -11 7 -41 11 -69 5 -27 9 -52 10 -55 0 -3 9 -41 19 -85 75
-333 252 -698 476 -980 59 -74 256 -278 325 -336 231 -194 511 -350 800 -448
279 -94 508 -130 815 -126 268 3 457 31 695 105 283 87 569 238 795 419 90 73
107 88 211 191 213 212 389 468 507 735 69 158 138 367 158 485 3 14 11 61 19
105 24 135 30 213 30 405 0 164 -5 257 -19 340 -3 14 -7 43 -10 65 -8 66 -54
254 -83 340 -15 44 -28 82 -28 85 -11 43 -81 201 -133 300 -144 276 -338 523
-567 720 -181 155 -419 307 -603 385 -72 31 -93 45 -122 83 -115 151 -319 272
-555 329 -103 26 -302 25 -430 -2z"/>
</g>
</svg>
